<svg xmlns="http://www.w3.org/2000/svg" xmlns:xlink="http://www.w3.org/1999/xlink" version="1.1" x="0px" y="0px" viewBox="0 0 64 80" style="enable-background:new 0 0 64 64;" xml:space="preserve"><style type="text/css">
	.st0{display:none;}
	.st1{display:inline;}
	.st2{fill:#FFCA00;}
	.st3{fill:#FF1D17;}
	.st4{fill:#009FFF;}
	.st5{fill:none;stroke:#000000;stroke-width:1.4;stroke-miterlimit:10;}
	.st6{fill:#192B2A;stroke:#F9BD00;stroke-width:1.4;stroke-miterlimit:10;}
	.st7{display:inline;fill:#192B2A;stroke:#F9BD00;stroke-width:1.4;stroke-miterlimit:10;}
	.st8{fill:#192B2A;}
	.st9{fill:#F9BD00;}
	.st10{fill:none;}
</style><g class="st0"><polygon class="st1" points="57.08,0 32,25.08 6.92,0 0,6.92 25.08,32 0,57.08 6.92,64 32,38.92 57.08,64 64,57.08 38.92,32    64,6.92  "/><g class="st1"><rect x="-168.01" y="42.96" class="st2" width="960.9" height="21.07"/><rect x="-168.01" y="39.32" class="st3" width="960.9" height="7.29"/><rect x="-168.01" y="32.03" class="st4" width="960.9" height="7.29"/></g></g><g class="st0"><polygon class="st1" points="57.08,0 32,25.08 6.92,0 0,6.92 25.08,32 0,57.08 6.92,64 32,38.92 57.08,64 64,57.08 38.92,32    64,6.92  "/></g><g><polygon class="st5" points="56.28,0.99 32,25.3 7.72,0.99 1.02,7.69 25.3,32 1.02,56.31 7.72,63.01 32,38.7 56.28,63.01    62.98,56.31 38.7,32 62.98,7.69  "/></g><g class="st0"><polygon class="st7" points="56.28,0.99 32,25.3 7.72,0.99 1.02,7.69 25.3,32 1.02,56.31 7.72,63.01 32,38.7 56.28,63.01    62.98,56.31 38.7,32 62.98,7.69  "/></g><g class="st0"><g class="st1"><polygon points="38.92,32 64,6.92 57.08,0 32,25.08 6.92,0 0,6.92 25.08,32 25.05,32.03 38.95,32.03   "/><polygon class="st2" points="0,57.08 6.92,64 24.31,46.6 10.48,46.6   "/><polygon class="st2" points="57.08,64 64,57.08 53.52,46.6 39.69,46.6   "/><polygon class="st3" points="49.88,42.96 46.23,39.32 32.4,39.32 36.04,42.96   "/><polygon class="st3" points="27.96,42.96 31.6,39.32 17.77,39.32 14.12,42.96   "/><polygon class="st3" points="14.12,42.96 10.48,46.6 24.31,46.6 27.96,42.96   "/><polygon class="st3" points="36.04,42.96 39.69,46.6 53.52,46.6 49.88,42.96   "/><polygon class="st4" points="32,38.92 31.6,39.32 32.4,39.32   "/><polygon class="st4" points="31.6,39.32 32,38.92 32.4,39.32 46.23,39.32 38.95,32.03 25.05,32.03 17.77,39.32   "/></g></g><text x="0" y="79" fill="#000000" font-size="5px" font-weight="bold" font-family="'Helvetica Neue', Helvetica, Arial-Unicode, Arial, Sans-serif">Created by Icons By Alfredo</text><text x="0" y="84" fill="#000000" font-size="5px" font-weight="bold" font-family="'Helvetica Neue', Helvetica, Arial-Unicode, Arial, Sans-serif">from the Noun Project</text></svg>